<?xml version="1.0" encoding="UTF-8"?>
<!DOCTYPE svg PUBLIC "-//W3C//DTD SVG 1.1//EN" "http://www.w3.org/Graphics/SVG/1.1/DTD/svg11.dtd">
<svg xmlns="http://www.w3.org/2000/svg" version="1.1" width="1000px" height="1000px" style="shape-rendering:geometricPrecision; text-rendering:geometricPrecision; image-rendering:optimizeQuality; fill-rule:evenodd; clip-rule:evenodd" xmlns:xlink="http://www.w3.org/1999/xlink">
<g><path style="opacity:0.999" fill="#0c2341" d="M 88.5,-0.5 C 362.167,-0.5 635.833,-0.5 909.5,-0.5C 960.036,10.0367 990.036,40.7034 999.5,91.5C 999.5,363.5 999.5,635.5 999.5,907.5C 990.155,957.845 960.488,988.512 910.5,999.5C 636.167,999.5 361.833,999.5 87.5,999.5C 40.0279,989.361 10.6946,960.694 -0.5,913.5C -0.5,637.833 -0.5,362.167 -0.5,86.5C 10.3724,38.2945 40.0391,9.29447 88.5,-0.5 Z"/></g>
<g><path style="opacity:1" fill="#d5ad4f" d="M 882.5,319.5 C 884.415,319.216 886.081,319.549 887.5,320.5C 885.557,326.504 887.224,327.837 892.5,324.5C 893.685,325.853 895.019,327.02 896.5,328C 895.101,328.595 893.768,328.428 892.5,327.5C 888.279,330.778 883.612,333.278 878.5,335C 877.382,336.074 876.382,337.24 875.5,338.5C 875.245,336.657 875.078,334.657 875,332.5C 873.67,333.582 872.17,334.249 870.5,334.5C 867.15,334.335 863.817,334.502 860.5,335C 861.056,335.383 861.389,335.883 861.5,336.5C 851.43,333.802 841.763,329.969 832.5,325C 805.999,308.917 779.666,292.584 753.5,276C 703.52,246.684 650.187,225.684 593.5,213C 591.64,209.133 588.64,206.8 584.5,206C 581.961,200.378 578.294,199.045 573.5,202C 568.831,203.067 564.664,202.233 561,199.5C 557.667,201.5 554.333,203.5 551,205.5C 549.056,204.312 547.556,202.646 546.5,200.5C 545.5,200.167 544.5,199.833 543.5,199.5C 539.43,200.37 535.764,202.036 532.5,204.5C 521.194,203.376 509.861,203.209 498.5,204C 492.255,205.539 486.422,208.039 481,211.5C 480.052,209.43 478.552,207.93 476.5,207C 471.523,206.148 466.69,206.648 462,208.5C 460.523,207.556 459.523,206.223 459,204.5C 458.027,206.392 457.36,208.392 457,210.5C 455.019,208.343 452.686,206.676 450,205.5C 447.734,211.274 445.234,211.608 442.5,206.5C 438.059,213.709 432.892,220.376 427,226.5C 426.511,224.396 425.345,224.062 423.5,225.5C 421.394,224.57 419.394,223.404 417.5,222C 416.5,221.333 415.5,221.333 414.5,222C 412.253,227.915 408.253,232.248 402.5,235C 390.894,240.202 378.894,244.202 366.5,247C 364.845,248.444 364.178,250.278 364.5,252.5C 365.5,252.5 366.5,252.5 367.5,252.5C 367.833,253.167 368.167,253.833 368.5,254.5C 366.208,254.756 364.041,254.423 362,253.5C 354.94,258.286 349.773,264.619 346.5,272.5C 340.732,274.55 335.398,277.384 330.5,281C 323.197,287.302 316.197,293.968 309.5,301C 305.006,304.414 300.34,307.581 295.5,310.5C 294.479,311.002 294.312,311.668 295,312.5C 297.167,314.667 299.333,316.833 301.5,319C 297.66,317.598 293.66,316.431 289.5,315.5C 289.965,319.764 291.965,323.098 295.5,325.5C 293.577,326.308 291.577,326.808 289.5,327C 290.517,328.049 290.684,329.216 290,330.5C 287.667,332.5 285.333,334.5 283,336.5C 282.244,338.809 282.744,340.809 284.5,342.5C 279.275,343.391 275.942,346.391 274.5,351.5C 272.724,349.553 270.724,349.22 268.5,350.5C 269.347,351.845 270.513,352.845 272,353.5C 272.226,356.095 272.726,358.595 273.5,361C 270.686,363.496 267.353,364.83 263.5,365C 262.874,365.75 262.374,366.584 262,367.5C 260.846,365.043 259.512,365.043 258,367.5C 257.333,370.5 257.333,373.5 258,376.5C 260.147,377.113 262.314,377.779 264.5,378.5C 260.337,380.191 256.671,379.525 253.5,376.5C 250.904,383.038 252.904,385.872 259.5,385C 256.292,389.247 253.458,393.747 251,398.5C 248.872,398.073 246.705,398.573 244.5,400C 247.321,402.141 248.654,404.975 248.5,408.5C 248.5,409.5 248.5,410.5 248.5,411.5C 246.473,411.338 244.473,411.505 242.5,412C 242.653,413.209 242.986,414.375 243.5,415.5C 243.703,417.044 244.37,418.378 245.5,419.5C 243.922,420.298 242.256,420.798 240.5,421C 238.485,422.555 238.152,424.389 239.5,426.5C 240.768,425.572 242.101,425.405 243.5,426C 241.251,427.745 239.584,429.912 238.5,432.5C 237.391,431.41 236.391,431.41 235.5,432.5C 233.511,435.966 232.011,439.632 231,443.5C 230.753,449.863 230.253,456.196 229.5,462.5C 230.567,467.134 232.567,471.301 235.5,475C 232.957,487.253 230.624,499.586 228.5,512C 228.833,513.167 229.167,514.333 229.5,515.5C 234.975,517.899 234.641,518.899 228.5,518.5C 227.726,528.594 225.226,538.261 221,547.5C 219.985,551.44 219.485,555.44 219.5,559.5C 221.199,559.34 222.866,559.506 224.5,560C 223.253,561.458 223.253,562.958 224.5,564.5C 222.988,565.249 221.988,566.416 221.5,568C 223.843,574.175 226.843,580.008 230.5,585.5C 227.801,588.26 226.467,591.594 226.5,595.5C 229.323,595.025 231.323,596.025 232.5,598.5C 230.886,603.957 232.22,608.623 236.5,612.5C 234.721,614.193 234.221,616.193 235,618.5C 237.18,619.346 238.68,620.846 239.5,623C 238.293,625.266 236.626,627.099 234.5,628.5C 234.709,629.086 235.043,629.586 235.5,630C 239.833,631 244.167,632 248.5,633C 247.299,633.903 246.465,635.069 246,636.5C 245.843,638.995 245.676,641.328 245.5,643.5C 247.445,647.61 248.611,651.944 249,656.5C 254.21,663.383 259.043,670.55 263.5,678C 263.095,678.945 262.428,679.612 261.5,680C 264.618,681.147 267.618,682.48 270.5,684C 267.997,685.549 267.997,687.216 270.5,689C 269.833,689.333 269.167,689.667 268.5,690C 270.519,690.45 272.352,691.283 274,692.5C 274.333,697.5 274.667,702.5 275,707.5C 277.472,710.111 277.639,712.611 275.5,715C 276.864,718.227 278.364,721.394 280,724.5C 283.433,721.652 287.266,720.985 291.5,722.5C 287.828,723.231 287.161,724.731 289.5,727C 288.643,727.689 287.977,728.522 287.5,729.5C 289.234,731.234 290.568,733.234 291.5,735.5C 293.703,730.284 294.869,730.284 295,735.5C 296.378,737.213 298.045,738.547 300,739.5C 300.186,741.9 300.686,744.234 301.5,746.5C 305.069,748.453 308.736,750.119 312.5,751.5C 312.586,752.496 312.252,753.329 311.5,754C 313.473,754.495 315.473,754.662 317.5,754.5C 318.043,754.56 318.376,754.893 318.5,755.5C 315.047,756.479 314.714,757.979 317.5,760C 319.878,760.511 322.212,761.178 324.5,762C 325.833,763.333 325.833,764.667 324.5,766C 326.367,766.711 327.867,766.211 329,764.5C 330.277,766.731 332.111,768.398 334.5,769.5C 334.023,770.478 333.357,771.311 332.5,772C 333.974,773.316 335.641,774.316 337.5,775C 335.744,775.202 334.078,775.702 332.5,776.5C 336.378,780.361 340.878,783.361 346,785.5C 347.653,785.18 348.653,784.18 349,782.5C 350.122,784.624 351.622,786.457 353.5,788C 359.188,791.347 365.188,793.847 371.5,795.5C 371.167,796.167 370.833,796.833 370.5,797.5C 369.596,798.209 369.263,799.209 369.5,800.5C 374.746,799.845 379.746,798.678 384.5,797C 377.603,802.133 378.27,803.299 386.5,800.5C 386.833,800.833 387.167,801.167 387.5,801.5C 386.833,802.5 386.167,803.5 385.5,804.5C 388.421,806.089 391.421,807.589 394.5,809C 399.5,815.333 405.167,821 411.5,826C 420.104,829.451 424.937,826.618 426,817.5C 426.862,819.087 427.529,820.754 428,822.5C 432.933,824.093 435.6,827.426 436,832.5C 436.414,832.043 436.914,831.709 437.5,831.5C 438.281,832.729 438.781,834.062 439,835.5C 440.093,833.651 441.426,831.984 443,830.5C 443.492,831.549 443.326,832.549 442.5,833.5C 442.957,834.298 443.624,834.631 444.5,834.5C 444.16,836.548 444.493,837.548 445.5,837.5C 449.142,836.088 451.475,837.421 452.5,841.5C 453.325,842.386 454.325,842.719 455.5,842.5C 457.265,843.461 459.265,843.795 461.5,843.5C 465.154,846.331 469.154,848.664 473.5,850.5C 472.754,851.736 472.421,853.07 472.5,854.5C 474.833,854.5 477.167,854.5 479.5,854.5C 479.351,853.448 479.517,852.448 480,851.5C 480.9,853.398 482.066,855.064 483.5,856.5C 488.969,856.694 494.469,856.361 500,855.5C 499.793,857.751 499.627,860.085 499.5,862.5C 505.409,862.092 510.743,863.426 515.5,866.5C 517.288,865.717 518.288,864.384 518.5,862.5C 519.167,862.167 519.833,861.833 520.5,861.5C 523.321,865.628 524.821,864.961 525,859.5C 529.364,858.294 529.531,858.794 525.5,861C 527.777,862.895 530.444,864.062 533.5,864.5C 532.754,865.736 532.421,867.07 532.5,868.5C 535.516,868.159 538.182,866.993 540.5,865C 539.5,864 538.5,863 537.5,862C 542.818,861.978 548.151,862.145 553.5,862.5C 553.481,864.06 553.148,865.56 552.5,867C 555.082,871.14 558.749,872.474 563.5,871C 567.274,867.98 571.107,867.813 575,870.5C 575.333,869.167 575.667,867.833 576,866.5C 577.699,867.406 579.533,867.739 581.5,867.5C 582.167,867.5 582.833,867.5 583.5,867.5C 587.634,868.485 591.968,868.818 596.5,868.5C 596.951,864.274 599.284,862.441 603.5,863C 608.329,865.465 611.662,869.298 613.5,874.5C 619.681,869.767 626.681,866.767 634.5,865.5C 635.78,867.724 635.447,869.724 633.5,871.5C 634.723,872.614 636.056,872.781 637.5,872C 640.629,870.601 643.629,868.935 646.5,867C 649.047,866.34 651.547,866.507 654,867.5C 654.667,866.167 655.333,864.833 656,863.5C 656.772,863.645 657.439,863.978 658,864.5C 658.036,866.941 658.869,868.941 660.5,870.5C 661.5,870.167 662.167,869.5 662.5,868.5C 661.111,864.3 662.778,862.3 667.5,862.5C 668.959,862.433 670.292,862.766 671.5,863.5C 672.868,864.306 674.201,865.306 675.5,866.5C 679.007,866.898 681.507,865.231 683,861.5C 683.667,862.167 684.333,862.833 685,863.5C 685.495,861.527 685.662,859.527 685.5,857.5C 686.675,857.281 687.675,857.614 688.5,858.5C 689.124,860.754 690.457,862.421 692.5,863.5C 693.425,862.643 694.092,861.643 694.5,860.5C 695.496,860.586 696.329,860.252 697,859.5C 697.198,861.382 697.698,863.048 698.5,864.5C 698.726,867.764 700.226,868.764 703,867.5C 704.039,865.254 705.206,863.087 706.5,861C 707.5,860.333 708.5,860.333 709.5,861C 708.549,861.718 708.383,862.551 709,863.5C 710.648,864.717 712.481,865.55 714.5,866C 715.09,867.509 715.756,869.009 716.5,870.5C 723.63,867.52 729.797,863.187 735,857.5C 735.45,859.519 736.283,861.352 737.5,863C 738.908,863.315 740.241,862.982 741.5,862C 743.667,859.833 745.833,857.667 748,855.5C 748.492,854.451 748.326,853.451 747.5,852.5C 747.808,851.692 748.308,851.025 749,850.5C 750.08,852.996 751.414,855.33 753,857.5C 755.586,855.455 758.42,853.789 761.5,852.5C 762.437,855.548 764.27,857.881 767,859.5C 768.333,856.833 769.667,854.167 771,851.5C 771.333,854.833 771.667,858.167 772,861.5C 773.943,861.959 775.276,860.959 776,858.5C 778.159,859.197 780.326,858.863 782.5,857.5C 783.205,860.089 783.205,862.756 782.5,865.5C 788.618,864.497 791.785,860.83 792,854.5C 793.211,851.241 795.044,848.408 797.5,846C 799.902,845.186 802.235,845.353 804.5,846.5C 803.289,847.874 802.289,849.374 801.5,851C 802.287,853.099 802.62,855.266 802.5,857.5C 803.978,857.238 805.311,857.571 806.5,858.5C 807.083,860.002 807.916,861.335 809,862.5C 808.304,858.886 807.47,855.219 806.5,851.5C 808.39,851.297 809.89,851.963 811,853.5C 811.869,856.33 813.036,858.997 814.5,861.5C 815.7,860.469 817.034,859.635 818.5,859C 819.833,858 819.833,857 818.5,856C 822.293,854.948 824.293,856.448 824.5,860.5C 826.873,859.45 827.873,857.617 827.5,855C 827.397,853.439 827.063,851.939 826.5,850.5C 827,850.167 827.5,849.833 828,849.5C 833.141,850.58 838.307,850.58 843.5,849.5C 846.131,849.321 848.465,849.987 850.5,851.5C 849.662,858.673 845.662,862.339 838.5,862.5C 840.444,866.138 843.444,868.305 847.5,869C 846.328,871.055 844.661,871.722 842.5,871C 841.167,869 839.833,867 838.5,865C 834.518,863.579 831.852,864.746 830.5,868.5C 832.297,872.703 833.13,877.036 833,881.5C 830.71,883.595 828.21,884.262 825.5,883.5C 826.347,882.155 827.513,881.155 829,880.5C 829.9,875.553 828.4,874.553 824.5,877.5C 823.614,876.675 823.281,875.675 823.5,874.5C 820.675,874.081 818.509,875.081 817,877.5C 815.249,882.458 812.582,886.791 809,890.5C 807.214,889.223 806.048,887.556 805.5,885.5C 807.227,883.063 808.06,880.396 808,877.5C 807.667,877.167 807.333,876.833 807,876.5C 802.92,880.794 801.587,880.127 803,874.5C 801.333,873.5 799.667,872.5 798,871.5C 796.596,873.394 795.43,875.394 794.5,877.5C 794.722,879.055 795.389,880.389 796.5,881.5C 789.588,887.954 781.588,892.287 772.5,894.5C 769.253,894.919 766.586,893.919 764.5,891.5C 764.694,893.263 764.694,895.097 764.5,897C 758.04,897.231 751.706,898.064 745.5,899.5C 745.833,896.5 744.5,895.167 741.5,895.5C 742.314,899.509 740.814,902.176 737,903.5C 735.392,901.278 733.225,899.945 730.5,899.5C 729.596,900.209 729.263,901.209 729.5,902.5C 728.518,901.859 727.518,901.193 726.5,900.5C 724.501,902.493 723.001,904.827 722,907.5C 719.171,906.326 718.171,907.326 719,910.5C 721.25,911.708 723.417,913.041 725.5,914.5C 724.5,915.167 723.5,915.833 722.5,916.5C 724.007,918.969 723.673,921.135 721.5,923C 718.942,924.626 716.275,925.626 713.5,926C 714.469,921.263 714.803,916.43 714.5,911.5C 711.833,911.833 709.167,912.167 706.5,912.5C 706.585,914.929 707.585,916.929 709.5,918.5C 707.599,919.231 705.599,919.231 703.5,918.5C 702.6,913.611 699.6,911.277 694.5,911.5C 694.5,912.5 694.5,913.5 694.5,914.5C 690.604,913.22 689.604,910.72 691.5,907C 689.5,905 687.5,905 685.5,907C 686.554,908.388 686.72,909.888 686,911.5C 683.372,913.126 681.039,915.126 679,917.5C 678.313,919.568 678.48,921.568 679.5,923.5C 676.441,925.96 674.108,928.96 672.5,932.5C 672.453,934 673.119,935 674.5,935.5C 677.843,933.22 681.343,931.22 685,929.5C 685.163,931.387 684.329,932.887 682.5,934C 674.413,935.339 673.747,938.005 680.5,942C 674.148,942.151 670.815,938.984 670.5,932.5C 669.448,932.351 668.448,932.517 667.5,933C 666.274,935.527 664.608,937.694 662.5,939.5C 661.709,938.934 661.709,938.101 662.5,937C 662.164,935.97 661.497,935.47 660.5,935.5C 660.5,935.167 660.5,934.833 660.5,934.5C 662.636,932.188 664.636,929.688 666.5,927C 665.333,925.833 664.167,924.667 663,923.5C 662.204,919.245 662.371,915.079 663.5,911C 656.58,904.205 652.747,905.705 652,915.5C 651.069,913.541 650.236,911.541 649.5,909.5C 647.389,908.152 645.555,908.485 644,910.5C 644.711,913.941 645.544,917.441 646.5,921C 646.148,925.389 644.982,929.556 643,933.5C 642.64,931.579 641.806,929.912 640.5,928.5C 637.788,929.915 637.288,929.581 639,927.5C 639.667,926.167 639.667,924.833 639,923.5C 635.851,924.562 633.018,925.895 630.5,927.5C 628.706,929.428 627.706,931.762 627.5,934.5C 626.336,937.578 624.836,937.912 623,935.5C 621.08,938.339 619.413,941.339 618,944.5C 612.984,942.627 607.818,941.127 602.5,940C 601.069,939.535 599.903,938.701 599,937.5C 598.167,938.5 597.333,939.5 596.5,940.5C 595.633,937.065 594.466,933.732 593,930.5C 591.989,929.663 590.822,929.33 589.5,929.5C 589.703,931.39 589.037,932.89 587.5,934C 582.39,934.453 578.89,936.953 577,941.5C 574.867,936.761 571.367,935.261 566.5,937C 565.887,934.853 565.221,932.686 564.5,930.5C 560.381,931.696 556.381,933.196 552.5,935C 551.789,936.255 550.956,937.421 550,938.5C 547.618,937.446 545.118,936.779 542.5,936.5C 542.586,935.504 542.252,934.671 541.5,934C 535.124,934.327 531.124,931.493 529.5,925.5C 527.728,926.27 526.728,927.603 526.5,929.5C 527.648,931.761 528.148,934.095 528,936.5C 526.295,932.447 523.295,930.447 519,930.5C 515.358,930.713 511.858,931.547 508.5,933C 505.943,933.685 504.109,935.185 503,937.5C 502.086,935.336 500.919,933.336 499.5,931.5C 496.111,933.151 493.445,932.317 491.5,929C 489.285,927.956 486.952,927.29 484.5,927C 485.167,926.333 485.833,925.667 486.5,925C 483.854,924.503 481.187,924.336 478.5,924.5C 479.26,929.347 480.594,934.014 482.5,938.5C 475.816,938.237 470.649,935.237 467,929.5C 465.411,925.969 464.245,922.302 463.5,918.5C 460.946,920.021 458.279,921.354 455.5,922.5C 455.709,923.086 456.043,923.586 456.5,924C 454.231,923.626 451.898,923.626 449.5,924C 444.48,927.032 439.48,930.032 434.5,933C 431.518,933.498 428.518,933.665 425.5,933.5C 425.351,934.552 425.517,935.552 426,936.5C 432.332,942.194 431.165,944.694 422.5,944C 417.109,943.312 413.109,940.645 410.5,936C 411.309,934.216 411.976,932.383 412.5,930.5C 410.974,927.346 410.307,924.013 410.5,920.5C 409.448,920.351 408.448,920.517 407.5,921C 405.85,923.813 403.85,926.313 401.5,928.5C 401.167,928.333 400.833,928.167 400.5,928C 403.071,924.076 404.738,919.743 405.5,915C 405.355,914.228 405.022,913.561 404.5,913C 401.716,912.108 399.05,910.942 396.5,909.5C 395.988,911.851 394.988,913.851 393.5,915.5C 392.073,911.74 389.407,909.406 385.5,908.5C 383.684,906.183 381.684,904.016 379.5,902C 377.063,902.203 374.729,903.037 372.5,904.5C 370.889,903.68 370.222,902.346 370.5,900.5C 371.978,900.762 373.311,900.429 374.5,899.5C 373.5,898.167 372.5,896.833 371.5,895.5C 370.713,896.242 370.047,897.075 369.5,898C 366.518,898.498 363.518,898.665 360.5,898.5C 361.17,901.59 360.003,903.257 357,903.5C 354.62,902.799 352.453,901.633 350.5,900C 351.793,899.51 353.127,899.343 354.5,899.5C 355.892,896.975 355.558,894.808 353.5,893C 349.62,890.137 345.287,888.97 340.5,889.5C 340.808,891.924 340.474,894.257 339.5,896.5C 336.167,894.5 332.833,892.5 329.5,890.5C 328.534,892.396 328.201,894.396 328.5,896.5C 324.03,896.97 323.53,895.97 327,893.5C 329.339,886.722 327.172,882.556 320.5,881C 322.698,880.627 324.865,880.127 327,879.5C 327.772,879.645 328.439,879.978 329,880.5C 330.269,879.095 330.769,877.429 330.5,875.5C 323.079,877.807 315.579,879.807 308,881.5C 306.167,881.333 304.333,881.167 302.5,881C 299.151,879.414 296.318,877.248 294,874.5C 290.88,875.593 290.713,877.093 293.5,879C 291.833,879.667 290.167,879.667 288.5,879C 290.007,878.163 290.507,876.996 290,875.5C 287.276,874.108 284.443,872.942 281.5,872C 284.072,870.092 286.572,870.259 289,872.5C 290.257,872.15 290.591,871.483 290,870.5C 284.365,868.853 279.865,865.686 276.5,861C 279.165,861.48 281.831,862.313 284.5,863.5C 287.282,863.141 287.948,861.808 286.5,859.5C 278.57,856.955 270.57,854.622 262.5,852.5C 261.201,853.09 260.368,854.09 260,855.5C 254.224,850.549 248.057,846.215 241.5,842.5C 235.585,844.337 234.918,847.504 239.5,852C 244.59,852.536 248.257,855.036 250.5,859.5C 248.926,860.631 247.259,860.798 245.5,860C 241.018,856.353 236.685,852.519 232.5,848.5C 234.932,844.107 235.766,839.44 235,834.5C 230.847,831.198 228.514,826.864 228,821.5C 227.586,821.043 227.086,820.709 226.5,820.5C 225.571,821.689 225.238,823.022 225.5,824.5C 222.301,824.304 220.301,822.637 219.5,819.5C 222.09,815.569 225.09,811.902 228.5,808.5C 226.769,807.657 224.935,807.657 223,808.5C 220.976,809.513 219.143,810.846 217.5,812.5C 215.475,808.974 212.475,806.807 208.5,806C 209.946,803.507 209.279,801.673 206.5,800.5C 208.398,799.266 210.065,799.599 211.5,801.5C 215.653,799.861 217.153,796.861 216,792.5C 214.414,789.659 212.58,786.993 210.5,784.5C 211.811,783.742 212.311,782.742 212,781.5C 208.92,781.031 205.754,780.865 202.5,781C 202.167,780.667 201.833,780.333 201.5,780C 205.619,777.426 205.452,775.26 201,773.5C 198.315,774.686 196.482,776.686 195.5,779.5C 203.806,782.979 203.473,784.146 194.5,783C 192.76,780.965 190.926,779.131 189,777.5C 187.018,777.99 185.351,778.99 184,780.5C 182.833,778 181,776.167 178.5,775C 185.739,774.649 192.572,772.815 199,769.5C 200.425,772.198 202.425,772.864 205,771.5C 205.667,770.5 205.667,769.5 205,768.5C 200.654,765.608 195.821,764.108 190.5,764C 186.318,759.589 184.318,760.755 184.5,767.5C 181.881,767.768 179.381,767.435 177,766.5C 174.333,761.167 171.667,755.833 169,750.5C 167.421,748.959 165.587,747.792 163.5,747C 165.767,745.919 165.934,744.419 164,742.5C 161.072,740.303 157.905,738.469 154.5,737C 156.847,736.666 159.181,736.833 161.5,737.5C 161.762,736.022 161.429,734.689 160.5,733.5C 157.921,731.96 155.421,730.293 153,728.5C 151.739,728.759 150.739,729.426 150,730.5C 149.798,732.256 149.298,733.922 148.5,735.5C 146.224,734.787 143.891,734.287 141.5,734C 139.152,732.312 138.985,730.478 141,728.5C 141.436,731.284 142.936,732.45 145.5,732C 143.335,727.332 140.668,722.999 137.5,719C 139.488,718.82 141.488,718.986 143.5,719.5C 143.607,717.097 142.607,715.264 140.5,714C 137.966,713.484 135.8,712.317 134,710.5C 133.492,712.904 132.325,713.571 130.5,712.5C 131.579,710.457 133.246,709.124 135.5,708.5C 136.452,706.955 136.785,705.288 136.5,703.5C 134.5,703.833 132.5,704.167 130.5,704.5C 130.027,701.167 131.36,699 134.5,698C 135.293,696.915 135.96,695.748 136.5,694.5C 135.252,692.541 133.585,691.041 131.5,690C 127.206,689.181 123.206,687.681 119.5,685.5C 120.19,677.627 120.19,669.794 119.5,662C 118.056,659.551 116.222,657.385 114,655.5C 113.51,654.207 113.343,652.873 113.5,651.5C 110.401,651.908 108.067,650.741 106.5,648C 104.527,647.505 102.527,647.338 100.5,647.5C 100.343,648.873 100.51,650.207 101,651.5C 102.803,652.313 104.303,653.48 105.5,655C 104.518,657.009 103.185,657.509 101.5,656.5C 100.453,653.57 98.7868,651.07 96.5,649C 97.5762,647.274 97.7429,645.441 97,643.5C 95.7485,641.999 94.7485,640.332 94,638.5C 87.6667,632.833 81.3333,627.167 75,621.5C 71.9412,616.608 70.7745,611.275 71.5,605.5C 73.861,605.674 76.1944,606.007 78.5,606.5C 78.128,602.957 76.128,600.79 72.5,600C 71.1068,598.829 70.2735,597.329 70,595.5C 68.8334,585.174 68.1668,574.84 68,564.5C 69.2635,566.607 71.0968,567.607 73.5,567.5C 73.5965,564.044 74.5965,560.877 76.5,558C 74.3686,557.457 72.3686,556.624 70.5,555.5C 70.8333,554.5 71.5,553.833 72.5,553.5C 73.6199,554.833 74.9532,555.333 76.5,555C 74.9186,553.172 73.5853,551.172 72.5,549C 76.1418,548.086 79.8085,547.252 83.5,546.5C 82.3877,537.981 78.8877,530.647 73,524.5C 72.288,504.505 71.788,484.505 71.5,464.5C 71.2109,449.763 72.0443,435.097 74,420.5C 76.0815,417.041 78.9149,414.374 82.5,412.5C 83.8333,410.833 83.8333,409.167 82.5,407.5C 83.6507,406.269 84.8173,406.269 86,407.5C 88.4878,396.695 92.9878,386.861 99.5,378C 98.8921,377.13 98.0588,376.63 97,376.5C 95.6068,377.615 94.1068,378.115 92.5,378C 94.1558,376.171 96.1558,374.837 98.5,374C 101.097,371.738 100.93,369.905 98,368.5C 96.1214,363.794 96.2881,359.127 98.5,354.5C 99.1667,357.167 99.8333,359.833 100.5,362.5C 102.722,365.271 104.555,364.938 106,361.5C 106.587,357.647 106.254,353.98 105,350.5C 106.385,351.551 107.385,352.884 108,354.5C 108.438,351.624 109.438,348.957 111,346.5C 118.034,343.756 120.868,338.756 119.5,331.5C 115.093,335.341 113.593,334.007 115,327.5C 119.844,319.812 125.177,312.479 131,305.5C 132,302.833 133,300.167 134,297.5C 134.333,298.167 134.667,298.833 135,299.5C 136.185,297.623 137.185,295.623 138,293.5C 141.122,294.645 144.289,295.645 147.5,296.5C 147.851,294.131 148.018,291.797 148,289.5C 145.07,287.934 141.903,287.1 138.5,287C 136.604,285.192 136.104,283.025 137,280.5C 141.637,283.61 144.637,282.276 146,276.5C 149.355,276.248 151.688,274.581 153,271.5C 158.333,258.167 163.667,244.833 169,231.5C 169.561,230.978 170.228,230.645 171,230.5C 175.153,231.29 179.32,231.956 183.5,232.5C 183.238,231.022 183.571,229.689 184.5,228.5C 190.12,224.333 189.453,221.333 182.5,219.5C 183.701,213.593 187.034,211.593 192.5,213.5C 193.845,212.653 194.845,211.487 195.5,210C 193.434,208.304 191.934,206.471 191,204.5C 206.167,188 221.333,171.5 236.5,155C 242.67,151.081 249.003,147.414 255.5,144C 258.5,143.667 261.5,143.333 264.5,143C 274.272,135.731 283.606,127.898 292.5,119.5C 297.224,118.638 301.224,116.472 304.5,113C 307.025,112.104 309.192,112.604 311,114.5C 311.543,112.369 312.376,110.369 313.5,108.5C 315.898,107.422 318.565,107.422 321.5,108.5C 321.414,106.323 320.747,104.323 319.5,102.5C 325.185,99.9817 330.185,96.4817 334.5,92C 336.94,90.6966 339.44,89.53 342,88.5C 342.772,88.6448 343.439,88.9781 344,89.5C 345.484,85.9828 347.984,84.1495 351.5,84C 352.155,85.4866 353.155,86.6533 354.5,87.5C 360.21,80.629 367.21,75.4623 375.5,72C 395.253,67.1545 414.92,61.9879 434.5,56.5C 439.311,58.4849 444.311,58.9849 449.5,58C 460.489,51.5172 470.989,52.0172 481,59.5C 484.205,58.2018 485.205,55.8684 484,52.5C 483.25,51.8742 482.416,51.3742 481.5,51C 492.737,49.0683 504.07,48.235 515.5,48.5C 553.983,50.2257 592.316,53.7257 630.5,59C 657.907,65.8024 684.574,74.8024 710.5,86C 716.23,89.0624 721.397,92.8957 726,97.5C 726.624,95.5355 726.124,93.8689 724.5,92.5C 726.438,91.4655 727.772,92.1322 728.5,94.5C 728.113,96.2743 727.447,97.941 726.5,99.5C 730.459,100.66 734.459,100.827 738.5,100C 739.308,99.6924 739.975,99.1924 740.5,98.5C 739.41,97.3914 739.41,96.3914 740.5,95.5C 755.96,103.397 771.294,111.564 786.5,120C 793.096,124.594 798.262,130.427 802,137.5C 802.779,136.272 803.779,135.272 805,134.5C 806.49,135.317 807.99,136.15 809.5,137C 814.379,144.589 818.879,152.422 823,160.5C 826.297,163.567 830.131,165.733 834.5,167C 831.808,167.43 829.141,167.263 826.5,166.5C 826.5,167.833 826.5,169.167 826.5,170.5C 830.217,171.527 833.55,173.361 836.5,176C 839.388,179.222 841.888,182.722 844,186.5C 848.432,196.562 852.099,206.895 855,217.5C 856.912,221.66 859.079,225.66 861.5,229.5C 859.131,229.015 856.797,229.681 854.5,231.5C 856.833,233.5 859.167,235.5 861.5,237.5C 859.999,239.957 858.332,239.957 856.5,237.5C 855.417,238.365 855.251,239.365 856,240.5C 859.667,240.833 863.333,241.167 867,241.5C 867.419,243.68 867.252,245.846 866.5,248C 867.812,251.116 868.812,254.282 869.5,257.5C 871.604,257.201 873.604,257.534 875.5,258.5C 874.624,259.251 873.624,259.751 872.5,260C 875.464,263.966 878.797,267.633 882.5,271C 881.13,272.441 880.13,274.108 879.5,276C 878.207,276.49 876.873,276.657 875.5,276.5C 875.343,277.873 875.51,279.207 876,280.5C 877.667,281.5 879.333,282.5 881,283.5C 881.195,285.207 881.195,286.874 881,288.5C 883.545,289.522 886.045,290.688 888.5,292C 887.159,293.295 885.826,293.795 884.5,293.5C 885.5,294.833 886.5,296.167 887.5,297.5C 886.135,298.941 884.635,300.274 883,301.5C 882.517,302.448 882.351,303.448 882.5,304.5C 884.143,304.52 885.476,303.853 886.5,302.5C 887.429,303.689 887.762,305.022 887.5,306.5C 884.843,306.838 882.51,306.171 880.5,304.5C 879.023,307.674 876.857,310.34 874,312.5C 872.136,314.955 872.302,317.122 874.5,319C 877.146,319.497 879.813,319.664 882.5,319.5 Z"/></g>
<g><path style="opacity:1" fill="#bf9e4e" d="M 181.5,221.5 C 182.434,222.568 182.768,223.901 182.5,225.5C 181.127,225.657 179.793,225.49 178.5,225C 180.426,224.578 181.426,223.411 181.5,221.5 Z"/></g>
<g><path style="opacity:1" fill="#595747" d="M 367.5,252.5 C 373.453,252.372 373.787,253.039 368.5,254.5C 368.167,253.833 367.833,253.167 367.5,252.5 Z"/></g>
<g><path style="opacity:1" fill="#88784a" d="M 887.5,320.5 C 886.081,319.549 884.415,319.216 882.5,319.5C 884.893,318.79 887.393,318.123 890,317.5C 891.365,318.593 891.699,319.926 891,321.5C 890.296,319.273 889.129,318.94 887.5,320.5 Z"/></g>
<g><path style="opacity:1" fill="#d4ad4f" d="M 605.5,342.5 C 606.514,343.674 607.847,344.34 609.5,344.5C 610.167,355.167 610.833,355.167 611.5,344.5C 611.263,343.209 611.596,342.209 612.5,341.5C 613.806,342.467 614.473,343.801 614.5,345.5C 615.552,345.649 616.552,345.483 617.5,345C 619.959,342.554 622.292,340.054 624.5,337.5C 625.192,338.025 625.692,338.692 626,339.5C 626.498,342.482 626.665,345.482 626.5,348.5C 627.5,348.5 628.5,348.5 629.5,348.5C 629.662,346.473 629.495,344.473 629,342.5C 628.346,343.696 627.846,343.696 627.5,342.5C 628.167,341.167 629.167,340.167 630.5,339.5C 631.308,341.423 631.808,343.423 632,345.5C 632.333,343.167 632.667,340.833 633,338.5C 634.231,339.108 635.564,339.441 637,339.5C 640.488,338.55 643.988,338.05 647.5,338C 650.789,339.41 652.456,341.91 652.5,345.5C 655.285,345.067 657.619,343.734 659.5,341.5C 662.037,341.305 664.703,341.639 667.5,342.5C 667.281,341.325 667.614,340.325 668.5,339.5C 670.634,338.037 672.634,337.371 674.5,337.5C 675.302,338.952 675.802,340.618 676,342.5C 676.513,341.473 677.013,340.473 677.5,339.5C 678.249,337.754 679.583,336.754 681.5,336.5C 686.765,338.131 691.765,340.131 696.5,342.5C 700.575,339.851 702.575,341.185 702.5,346.5C 702.393,348.379 702.893,348.712 704,347.5C 704.789,345.288 704.622,343.288 703.5,341.5C 704.694,340.223 706.36,339.556 708.5,339.5C 713.891,340.351 719.224,341.518 724.5,343C 729.167,343.333 733.833,343.667 738.5,344C 743.283,346.451 748.283,348.451 753.5,350C 755.041,351.371 756.375,352.871 757.5,354.5C 758.32,356.14 759.153,357.807 760,359.5C 760.717,358.956 761.217,358.289 761.5,357.5C 761.857,355.411 762.523,353.411 763.5,351.5C 770.034,351.182 774.867,353.848 778,359.5C 778.333,358.833 778.667,358.167 779,357.5C 781.754,361.079 783.754,365.079 785,369.5C 785.925,370.047 786.758,370.713 787.5,371.5C 786.754,372.736 786.421,374.07 786.5,375.5C 788.981,375.323 790.814,376.323 792,378.5C 795.088,386.609 798.254,394.609 801.5,402.5C 801.095,405.704 801.095,408.537 801.5,411C 801.833,411.5 802.167,412 802.5,412.5C 803.474,410.257 803.808,407.924 803.5,405.5C 805.164,406.949 805.998,408.949 806,411.5C 807.147,412.458 808.147,412.125 809,410.5C 809.483,411.448 809.649,412.448 809.5,413.5C 810.5,413.5 811.5,413.5 812.5,413.5C 812.335,417.182 812.501,420.848 813,424.5C 813.308,423.692 813.808,423.025 814.5,422.5C 815.425,423.641 816.259,423.641 817,422.5C 817.977,424.74 818.477,427.073 818.5,429.5C 818.232,431.099 818.566,432.432 819.5,433.5C 818.825,438.456 819.158,443.456 820.5,448.5C 821.539,444.895 822.205,441.228 822.5,437.5C 823.268,438.263 823.768,439.263 824,440.5C 824.278,439.584 824.778,438.918 825.5,438.5C 825.5,444.5 825.5,450.5 825.5,456.5C 824.883,456.389 824.383,456.056 824,455.5C 823.462,460.171 822.962,464.838 822.5,469.5C 816.122,490.375 802.122,502.542 780.5,506C 765.984,507.304 751.65,506.304 737.5,503C 735.369,502.457 733.369,501.624 731.5,500.5C 730.257,497.018 728.757,493.684 727,490.5C 725.579,493.622 723.913,493.956 722,491.5C 720.815,493.377 719.815,495.377 719,497.5C 718.573,489.956 716.739,489.623 713.5,496.5C 707.353,493.075 702.187,494.075 698,499.5C 697.667,497.833 697.333,496.167 697,494.5C 694.268,493.335 691.768,492.002 689.5,490.5C 689.539,489.244 689.039,488.244 688,487.5C 687.015,488.814 685.848,489.814 684.5,490.5C 683.06,492.535 681.727,494.702 680.5,497C 680.905,497.945 681.572,498.612 682.5,499C 676.635,499.793 676.302,501.127 681.5,503C 678.385,507.644 679.052,511.644 683.5,515C 681.567,515.251 679.734,515.751 678,516.5C 677.144,518.868 676.31,521.202 675.5,523.5C 674.448,523.351 673.448,523.517 672.5,524C 676.059,525.228 679.392,526.894 682.5,529C 679.623,530.127 676.623,530.794 673.5,531C 677.461,531.608 678.961,533.774 678,537.5C 676.255,538.956 674.422,540.289 672.5,541.5C 674.826,542.39 677.159,542.557 679.5,542C 678.437,543.188 677.103,543.688 675.5,543.5C 676.091,546.614 677.758,549.114 680.5,551C 676.42,553.312 673.92,556.812 673,561.5C 671.59,562.787 670.09,563.954 668.5,565C 675.503,565.497 675.837,566.163 669.5,567C 670.793,567.49 672.127,567.657 673.5,567.5C 672.757,569.696 672.424,571.696 672.5,573.5C 667.296,574.977 667.629,575.644 673.5,575.5C 673.918,576.222 674.584,576.722 675.5,577C 672.576,577.988 669.576,578.654 666.5,579C 669.638,580.244 672.972,580.911 676.5,581C 673.167,581.333 669.833,581.667 666.5,582C 668.9,582.186 671.234,582.686 673.5,583.5C 673.032,585.134 672.032,586.3 670.5,587C 672.246,587.471 673.913,588.138 675.5,589C 672.456,589.359 672.122,590.026 674.5,591C 669.167,591.667 669.167,592.333 674.5,593C 673.095,594.269 671.429,594.769 669.5,594.5C 669.46,597.425 670.293,600.091 672,602.5C 674.212,603.12 676.046,604.287 677.5,606C 676.577,608.94 675.577,611.773 674.5,614.5C 675.552,614.351 676.552,614.517 677.5,615C 672.906,617.297 668.239,619.63 663.5,622C 667.932,622.623 668.265,623.623 664.5,625C 666.5,626.667 668.5,628.333 670.5,630C 668.833,630.333 667.167,630.667 665.5,631C 666.938,631.219 668.271,631.719 669.5,632.5C 666.972,633.517 666.972,634.684 669.5,636C 666.258,636.283 665.924,637.117 668.5,638.5C 667.975,639.192 667.308,639.692 666.5,640C 668.5,640.667 670.5,641.333 672.5,642C 668.858,641.712 666.358,643.212 665,646.5C 664.503,649.146 664.336,651.813 664.5,654.5C 665.552,654.351 666.552,654.517 667.5,655C 662.171,657.719 656.504,659.886 650.5,661.5C 652.045,662.452 653.712,662.785 655.5,662.5C 654.158,663.793 652.491,664.626 650.5,665C 651.756,665.417 652.423,666.25 652.5,667.5C 651.683,669.308 652.35,670.808 654.5,672C 653.5,672.333 652.5,672.667 651.5,673C 653.192,674.401 653.859,676.234 653.5,678.5C 652.448,678.351 651.448,678.517 650.5,679C 651.696,679.654 651.696,680.154 650.5,680.5C 648.657,679.061 646.99,679.228 645.5,681C 646.971,682.583 647.971,684.417 648.5,686.5C 647.448,686.351 646.448,686.517 645.5,687C 647.076,687.44 648.41,688.273 649.5,689.5C 650.107,689.376 650.44,689.043 650.5,688.5C 651.552,688.351 652.552,688.517 653.5,689C 649.379,691.899 645.046,694.566 640.5,697C 641.328,697.915 642.328,698.581 643.5,699C 646.5,699.333 649.5,699.667 652.5,700C 647.705,701.567 643.038,703.4 638.5,705.5C 638.5,706.5 638.5,707.5 638.5,708.5C 637.209,708.263 636.209,708.596 635.5,709.5C 634.167,709.5 632.833,709.5 631.5,709.5C 631.216,711.415 631.549,713.081 632.5,714.5C 630.469,714.972 628.802,715.972 627.5,717.5C 626.761,717.369 626.094,717.536 625.5,718C 626.365,719.359 627.365,720.526 628.5,721.5C 627.127,721.343 625.793,721.51 624.5,722C 626.315,722.757 627.981,723.59 629.5,724.5C 629.5,724.833 629.5,725.167 629.5,725.5C 626.428,725.183 623.428,725.516 620.5,726.5C 620.624,727.107 620.957,727.44 621.5,727.5C 622.586,727.62 623.253,728.287 623.5,729.5C 621.765,732.197 622.431,734.03 625.5,735C 622.7,736.232 619.7,736.899 616.5,737C 617.687,738.019 618.687,739.186 619.5,740.5C 617.587,741.051 615.587,741.218 613.5,741C 614.044,741.717 614.711,742.217 615.5,742.5C 614.653,743.966 613.32,744.8 611.5,745C 613.247,745.352 614.914,745.852 616.5,746.5C 616.631,747.239 616.464,747.906 616,748.5C 614.506,747.253 613.006,747.253 611.5,748.5C 611.957,749.298 612.624,749.631 613.5,749.5C 612.737,750.268 611.737,750.768 610.5,751C 611.167,751.333 611.833,751.667 612.5,752C 612.272,752.399 611.938,752.565 611.5,752.5C 610.5,752.5 609.5,752.5 608.5,752.5C 607.054,751.387 605.387,751.22 603.5,752C 604.167,752.333 604.833,752.667 605.5,753C 604.584,753.278 603.918,753.778 603.5,754.5C 597.175,754.004 596.841,755.171 602.5,758C 601.167,758.333 599.833,758.667 598.5,759C 600.392,759.973 602.392,760.64 604.5,761C 602.292,761.191 600.292,761.691 598.5,762.5C 596.05,762.298 593.717,762.631 591.5,763.5C 589.43,763.449 587.597,764.115 586,765.5C 584.535,764.67 583.035,764.504 581.5,765C 584.881,766.339 588.214,767.672 591.5,769C 585.703,769.28 579.87,769.113 574,768.5C 574.058,769.98 572.891,770.813 570.5,771C 572.5,771.333 574.5,771.667 576.5,772C 571.702,774.515 566.702,775.015 561.5,773.5C 562.234,772.292 562.567,770.959 562.5,769.5C 561.5,769.5 560.5,769.5 559.5,769.5C 559.167,769.5 558.833,769.5 558.5,769.5C 559.625,768.348 559.625,767.348 558.5,766.5C 555.903,766.357 553.569,765.523 551.5,764C 553.885,763.444 556.218,763.61 558.5,764.5C 561.64,765.641 564.973,765.808 568.5,765C 566.291,763.856 563.957,763.023 561.5,762.5C 560.859,761.518 560.193,760.518 559.5,759.5C 561.487,756.844 564.153,754.177 567.5,751.5C 562.32,749.848 556.987,748.682 551.5,748C 550.288,746.893 550.621,746.393 552.5,746.5C 555.509,747.283 558.676,747.95 562,748.5C 565.832,746.235 569.998,745.068 574.5,745C 572.414,744.685 570.414,744.185 568.5,743.5C 564.138,742.628 559.804,741.628 555.5,740.5C 554.167,739.5 552.833,738.5 551.5,737.5C 560.068,739.325 568.735,740.159 577.5,740C 572.492,739.131 572.825,738.464 578.5,738C 572.811,737.627 567.145,737.127 561.5,736.5C 561.783,735.711 562.283,735.044 563,734.5C 564.183,735.731 565.349,735.731 566.5,734.5C 564.604,733.534 562.604,733.201 560.5,733.5C 557.742,732.623 555.076,731.456 552.5,730C 553.745,729.209 555.078,728.709 556.5,728.5C 559.747,727.748 563.081,727.248 566.5,727C 565.099,726.59 563.766,726.09 562.5,725.5C 560.914,724.852 559.247,724.352 557.5,724C 560.471,723.206 563.471,722.539 566.5,722C 565.756,720.961 564.756,720.461 563.5,720.5C 563.167,719.833 562.833,719.167 562.5,718.5C 567.658,717.516 567.658,716.683 562.5,716C 568.8,715.557 568.8,714.224 562.5,712C 563.044,711.283 563.711,710.783 564.5,710.5C 566.484,710.617 568.15,709.95 569.5,708.5C 565.555,707.509 561.555,707.176 557.5,707.5C 557.918,706.778 558.584,706.278 559.5,706C 562.833,705.667 566.167,705.333 569.5,705C 560.773,701.592 551.773,699.092 542.5,697.5C 544.023,695.717 546.023,695.051 548.5,695.5C 551.576,695.942 554.743,696.275 558,696.5C 560.473,695.88 562.973,695.214 565.5,694.5C 565.376,693.893 565.043,693.56 564.5,693.5C 563.448,693.649 562.448,693.483 561.5,693C 562.571,692.148 563.571,691.315 564.5,690.5C 565.263,689.732 566.263,689.232 567.5,689C 566.099,688.59 564.766,688.09 563.5,687.5C 560.927,687.852 558.594,687.352 556.5,686C 559.167,685.667 561.833,685.333 564.5,685C 563.095,683.731 561.429,683.231 559.5,683.5C 558.325,683.719 557.325,683.386 556.5,682.5C 558.5,681.667 560.5,680.833 562.5,680C 561.552,679.517 560.552,679.351 559.5,679.5C 556.079,679.482 553.412,678.149 551.5,675.5C 553.262,674.738 554.262,673.404 554.5,671.5C 556.819,672.167 559.153,672.334 561.5,672C 557.366,670.28 553.7,668.114 550.5,665.5C 551.11,664.609 551.443,663.609 551.5,662.5C 552.557,661.794 552.224,661.461 550.5,661.5C 553.641,660.679 556.975,660.179 560.5,660C 558.19,659.503 555.857,659.337 553.5,659.5C 553.418,657.748 554.251,656.748 556,656.5C 559.121,657.536 562.287,657.703 565.5,657C 566.056,656.617 566.389,656.117 566.5,655.5C 567.598,654.603 567.598,653.77 566.5,653C 568.126,653.195 569.793,653.195 571.5,653C 567.143,650.577 562.476,649.411 557.5,649.5C 556.448,649.649 555.448,649.483 554.5,649C 555.381,648.292 556.047,647.458 556.5,646.5C 557.058,645.21 558.058,644.377 559.5,644C 556.956,641.853 554.289,641.353 551.5,642.5C 550.833,642.5 550.167,642.5 549.5,642.5C 549.5,641.833 549.5,641.167 549.5,640.5C 549.5,640.167 549.5,639.833 549.5,639.5C 552.598,639.587 552.932,639.087 550.5,638C 552.285,636.837 554.285,636.17 556.5,636C 555.099,635.59 553.766,635.09 552.5,634.5C 550.571,634.769 548.905,634.269 547.5,633C 556.737,630.547 556.404,628.714 546.5,627.5C 545.399,626.402 544.066,626.235 542.5,627C 543.416,627.278 544.082,627.778 544.5,628.5C 541.886,628.723 540.219,627.556 539.5,625C 534.744,623.978 530.077,622.644 525.5,621C 526.179,618.678 526.179,615.844 525.5,612.5C 527.5,612.833 529.5,613.167 531.5,613.5C 533.824,613.123 534.491,612.123 533.5,610.5C 535.857,610.663 538.19,610.497 540.5,610C 538.231,607.977 535.564,607.144 532.5,607.5C 532.662,605.473 532.495,603.473 532,601.5C 530.15,598.323 528.317,595.157 526.5,592C 526.57,591.235 526.903,590.735 527.5,590.5C 530.152,590.59 532.485,589.924 534.5,588.5C 534.703,586.956 535.37,585.622 536.5,584.5C 534.922,583.702 533.256,583.202 531.5,583C 530.549,582.282 530.383,581.449 531,580.5C 533.243,582.282 535.743,582.782 538.5,582C 538.043,581.586 537.709,581.086 537.5,580.5C 538.665,579.416 539.998,578.583 541.5,578C 539.1,577.814 536.766,577.314 534.5,576.5C 536.89,571.47 540.89,569.304 546.5,570C 542.167,569.667 537.833,569.333 533.5,569C 536.371,568.869 538.705,567.703 540.5,565.5C 538.208,563.343 535.875,561.176 533.5,559C 536.882,558.824 540.215,558.324 543.5,557.5C 541.865,556.319 540.198,556.319 538.5,557.5C 537.026,556.564 536.026,555.23 535.5,553.5C 536.441,550.18 536.608,546.847 536,543.5C 537.509,541.081 539.675,540.081 542.5,540.5C 541.821,538.332 540.821,536.332 539.5,534.5C 539.632,532.399 540.632,530.899 542.5,530C 538.342,530.078 536.009,528.078 535.5,524C 536.5,523.667 537.5,523.333 538.5,523C 537.196,522.196 536.529,521.029 536.5,519.5C 537.46,517.523 538.46,515.523 539.5,513.5C 538.318,511.533 538.985,510.2 541.5,509.5C 540.754,508.264 540.421,506.93 540.5,505.5C 542.199,505.66 543.866,505.494 545.5,505C 543.527,504.505 541.527,504.338 539.5,504.5C 539.816,500.475 539.983,496.475 540,492.5C 539,493.5 538,494.5 537,495.5C 536.051,491.622 534.885,491.622 533.5,495.5C 532.692,493.577 532.192,491.577 532,489.5C 530.927,493.084 530.26,496.75 530,500.5C 529.069,498.541 528.236,496.541 527.5,494.5C 525.433,493.866 523.6,492.866 522,491.5C 519.049,493.076 515.883,493.743 512.5,493.5C 512.649,494.552 512.483,495.552 512,496.5C 511.71,494.956 511.044,493.623 510,492.5C 509.107,493.711 508.274,493.711 507.5,492.5C 505.157,487.681 502.657,483.015 500,478.5C 499.667,482.167 499.333,485.833 499,489.5C 498.802,486.298 497.969,483.298 496.5,480.5C 496.251,481.582 496.085,482.915 496,484.5C 495.676,482.431 494.842,482.098 493.5,483.5C 492.749,482.624 492.249,481.624 492,480.5C 490.257,482.321 488.757,484.321 487.5,486.5C 487.167,485.167 486.833,483.833 486.5,482.5C 485.667,483.5 484.833,484.5 484,485.5C 482.913,483.068 482.413,483.402 482.5,486.5C 481.167,486.5 479.833,486.5 478.5,486.5C 478.649,485.448 478.483,484.448 478,483.5C 477.111,484.888 476.611,484.722 476.5,483C 477.148,481.56 477.481,480.06 477.5,478.5C 476.167,478.5 474.833,478.5 473.5,478.5C 473.657,479.873 473.49,481.207 473,482.5C 471.645,480.226 470.145,480.226 468.5,482.5C 467.106,478.622 465.939,478.955 465,483.5C 464.329,484.252 463.496,484.586 462.5,484.5C 458.944,482.295 455.611,479.628 452.5,476.5C 451.914,476.709 451.414,477.043 451,477.5C 451.309,488.842 449.309,489.175 445,478.5C 444.667,479.167 444.333,479.833 444,480.5C 442.5,479.667 441.333,478.5 440.5,477C 439.551,476.383 438.718,476.549 438,477.5C 434.845,475.788 433.178,473.121 433,469.5C 429.477,472.159 426.977,471.659 425.5,468C 424.552,467.517 423.552,467.351 422.5,467.5C 421.778,467.082 421.278,466.416 421,465.5C 420.52,467.133 419.687,468.466 418.5,469.5C 416.955,468.77 416.122,467.437 416,465.5C 415.242,467.769 415.409,469.936 416.5,472C 414.866,472.494 413.199,472.66 411.5,472.5C 411.846,469.398 411.179,466.565 409.5,464C 407.907,465.156 406.073,466.322 404,467.5C 402.56,466.852 401.06,466.519 399.5,466.5C 399.66,468.199 399.494,469.866 399,471.5C 396.754,467.766 395.087,463.766 394,459.5C 393.993,462.31 392.826,464.31 390.5,465.5C 389.833,463.5 389.167,461.5 388.5,459.5C 386.97,461.369 385.47,463.369 384,465.5C 382.213,464.657 380.38,464.49 378.5,465C 379.423,462.952 378.923,461.119 377,459.5C 376.667,461.833 376.333,464.167 376,466.5C 375.136,464.169 374.302,462.503 373.5,461.5C 372.833,460.833 372.167,460.167 371.5,459.5C 371.5,457.833 371.5,456.167 371.5,454.5C 371.217,453.711 370.717,453.044 370,452.5C 369.505,454.473 369.338,456.473 369.5,458.5C 368.33,455.149 366.83,451.815 365,448.5C 363.615,449.551 362.615,450.884 362,452.5C 360.956,451.377 360.29,450.044 360,448.5C 358.768,451.3 358.101,454.3 358,457.5C 357.178,455.212 356.511,452.878 356,450.5C 355.333,451.167 354.667,451.833 354,452.5C 353.71,450.048 353.044,447.715 352,445.5C 351.667,446.5 351.333,447.5 351,448.5C 350.667,446.167 350.333,443.833 350,441.5C 349.667,442.167 349.333,442.833 349,443.5C 347.302,440.39 346.302,437.057 346,433.5C 344.958,437.759 344.125,442.093 343.5,446.5C 343.167,446.167 342.833,445.833 342.5,445.5C 341.738,441.889 341.238,438.222 341,434.5C 340.641,437.544 339.974,437.878 339,435.5C 338.899,432.3 338.232,429.3 337,426.5C 336.667,427.5 336.333,428.5 336,429.5C 335.027,427.608 334.36,425.608 334,423.5C 333.747,426.2 333.747,428.867 334,431.5C 331.667,428.5 329.333,425.5 327,422.5C 326.333,420.167 326.333,417.833 327,415.5C 327.383,414.944 327.883,414.611 328.5,414.5C 329.287,416.104 330.62,416.771 332.5,416.5C 332.768,414.901 332.434,413.568 331.5,412.5C 330.56,408.537 330.393,404.537 331,400.5C 331.415,404.099 332.582,407.765 334.5,411.5C 335.167,408.167 335.833,404.833 336.5,401.5C 337.386,402.325 337.719,403.325 337.5,404.5C 336.931,408.329 337.598,411.663 339.5,414.5C 339.523,416.927 340.023,419.26 341,421.5C 341.87,420.892 342.37,420.059 342.5,419C 340.551,414.374 341.718,410.874 346,408.5C 346.945,408.905 347.612,409.572 348,410.5C 348.333,409.833 348.667,409.167 349,408.5C 350.264,410.607 352.097,411.607 354.5,411.5C 354.833,416.833 355.167,416.833 355.5,411.5C 357.176,412.183 357.843,413.517 357.5,415.5C 358.5,415.5 359.5,415.5 360.5,415.5C 361.103,412.959 361.103,410.626 360.5,408.5C 360.123,406.742 359.456,405.075 358.5,403.5C 358.258,400.406 358.758,397.406 360,394.5C 361.03,398.773 361.697,403.106 362,407.5C 363.018,408.706 363.518,408.373 363.5,406.5C 362.957,405.136 362.79,403.803 363,402.5C 364.188,403.563 364.688,404.897 364.5,406.5C 364.79,409.127 366.124,410.794 368.5,411.5C 368.5,411.833 368.5,412.167 368.5,412.5C 369.63,421.635 370.297,421.635 370.5,412.5C 371.583,408.876 371.583,405.209 370.5,401.5C 371.322,397.847 372.155,394.181 373,390.5C 373.199,392.402 374.033,393.902 375.5,395C 374.152,396.574 373.486,398.407 373.5,400.5C 375.398,407.427 376.898,414.427 378,421.5C 378.455,418.146 378.955,414.813 379.5,411.5C 379.157,408.347 379.49,406.013 380.5,404.5C 380.281,405.675 380.614,406.675 381.5,407.5C 382.788,405.701 382.788,404.035 381.5,402.5C 381.833,401.167 382.167,399.833 382.5,398.5C 384.06,396.844 385.06,394.844 385.5,392.5C 388.951,394.927 391.117,398.26 392,402.5C 393.867,400.192 394.867,397.525 395,394.5C 397.208,397.411 398.542,400.744 399,404.5C 400.039,403.756 400.539,402.756 400.5,401.5C 401.29,400.391 401.79,399.058 402,397.5C 402.852,398.571 403.685,399.571 404.5,400.5C 405.167,401.167 405.833,401.833 406.5,402.5C 407.776,408.986 408.442,408.986 408.5,402.5C 410.939,400.515 412.439,397.848 413,394.5C 413.985,396.641 415.152,398.641 416.5,400.5C 416.908,401.643 417.575,402.643 418.5,403.5C 419.793,401.364 419.793,399.364 418.5,397.5C 418.221,394.882 417.554,392.382 416.5,390C 417.996,389.493 419.163,389.993 420,391.5C 421.732,395.363 423.066,399.363 424,403.5C 425.619,395.684 427.119,387.851 428.5,380C 426.847,377.399 426.347,374.565 427,371.5C 428.587,370.273 429.921,370.606 431,372.5C 431.363,375.544 431.863,378.544 432.5,381.5C 433.21,383.746 433.71,386.08 434,388.5C 434.186,385.964 434.686,383.631 435.5,381.5C 435.189,385.68 435.855,389.68 437.5,393.5C 438.229,390.687 439.396,388.687 441,387.5C 441.17,389.715 441.837,391.715 443,393.5C 443.333,392.167 443.667,390.833 444,389.5C 444.333,391.5 444.667,393.5 445,395.5C 445.942,391.532 446.775,387.532 447.5,383.5C 448.474,385.743 448.808,388.076 448.5,390.5C 449.5,390.5 450.5,390.5 451.5,390.5C 451.492,387.455 451.159,384.455 450.5,381.5C 451.5,381.5 452.5,381.5 453.5,381.5C 453.833,381.5 454.167,381.5 454.5,381.5C 454.833,382.833 455.167,384.167 455.5,385.5C 456.256,387.763 456.423,390.097 456,392.5C 457.375,390.063 457.875,387.397 457.5,384.5C 456.715,380.404 457.882,377.07 461,374.5C 462.908,377.332 463.741,376.999 463.5,373.5C 464.492,373.328 465.158,373.662 465.5,374.5C 465.196,375.15 464.863,375.817 464.5,376.5C 465.833,377.167 467.167,377.833 468.5,378.5C 467.456,380.768 467.289,383.101 468,385.5C 469.465,382.323 470.632,378.99 471.5,375.5C 472.278,373.853 473.444,372.52 475,371.5C 475.333,369.5 475.667,367.5 476,365.5C 476.725,369.08 478.391,372.08 481,374.5C 481.682,368.011 482.516,368.011 483.5,374.5C 483.248,377.32 483.748,379.986 485,382.5C 485.722,379.739 485.555,377.073 484.5,374.5C 485.52,373.046 486.687,372.713 488,373.5C 488.369,377.863 488.869,382.196 489.5,386.5C 491.911,386.863 493.411,385.863 494,383.5C 494.333,384.833 494.667,386.167 495,387.5C 495.667,384.5 495.667,381.5 495,378.5C 494.094,381.121 493.594,380.954 493.5,378C 493.684,376.624 494.351,375.791 495.5,375.5C 496.327,380.985 496.827,386.652 497,392.5C 497.49,391.207 497.657,389.873 497.5,388.5C 498.609,386.414 499.276,384.08 499.5,381.5C 498.487,378.459 498.487,375.459 499.5,372.5C 502.505,375.42 504.338,374.754 505,370.5C 505.419,374.852 506.086,375.185 507,371.5C 507.562,378.06 508.395,378.06 509.5,371.5C 508.585,367.856 508.419,364.19 509,360.5C 509.5,361 510,361.5 510.5,362C 509.269,363.183 509.269,364.349 510.5,365.5C 511.086,365.291 511.586,364.957 512,364.5C 512.333,366.167 512.667,367.833 513,369.5C 513.21,367.942 513.71,366.609 514.5,365.5C 514.504,369.25 515.504,369.917 517.5,367.5C 517.338,369.527 517.505,371.527 518,373.5C 518.953,370.568 519.453,367.568 519.5,364.5C 520.167,364.167 520.833,363.833 521.5,363.5C 522.776,365.587 524.276,367.587 526,369.5C 527.61,367.061 528.444,364.394 528.5,361.5C 529.147,360.726 529.48,359.726 529.5,358.5C 528.813,356.847 528.146,355.181 527.5,353.5C 528.531,352.751 529.698,352.085 531,351.5C 531.859,345.79 533.359,340.29 535.5,335C 536.996,334.493 538.163,334.993 539,336.5C 541.381,335.565 543.881,335.232 546.5,335.5C 546.298,337.95 546.631,340.283 547.5,342.5C 548.008,344.233 548.841,344.566 550,343.5C 550.232,344.737 550.732,345.737 551.5,346.5C 551.238,347.978 551.571,349.311 552.5,350.5C 554.388,348.206 555.722,345.539 556.5,342.5C 563.916,340.096 570.916,336.762 577.5,332.5C 579.645,334.732 581.145,337.399 582,340.5C 584.237,341.056 586.237,342.056 588,343.5C 588.359,340.456 589.026,340.122 590,342.5C 590.151,339.881 590.985,337.547 592.5,335.5C 591.584,338.236 591.584,341.236 592.5,344.5C 593.281,343.271 593.781,341.938 594,340.5C 595.144,343.131 596.644,345.464 598.5,347.5C 598.898,344.976 599.232,342.476 599.5,340C 600.5,339.333 601.5,339.333 602.5,340C 603.373,341.045 604.373,341.878 605.5,342.5 Z"/></g>
<g><path style="opacity:1" fill="#786d49" d="M 870.5,334.5 C 868.369,335.314 866.036,335.814 863.5,336C 864.5,336.333 865.5,336.667 866.5,337C 864.613,337.78 862.946,337.613 861.5,336.5C 861.389,335.883 861.056,335.383 860.5,335C 863.817,334.502 867.15,334.335 870.5,334.5 Z"/></g>
<g><path style="opacity:1" fill="#686248" d="M 674.5,337.5 C 674.56,336.957 674.893,336.624 675.5,336.5C 676.176,337.602 676.842,338.602 677.5,339.5C 677.013,340.473 676.513,341.473 676,342.5C 675.802,340.618 675.302,338.952 674.5,337.5 Z"/></g>
<g><path style="opacity:1" fill="#88784a" d="M 551.5,346.5 C 550.732,345.737 550.232,344.737 550,343.5C 548.841,344.566 548.008,344.233 547.5,342.5C 548.29,341.391 548.79,340.058 549,338.5C 549.333,339.833 549.667,341.167 550,342.5C 550.333,342.167 550.667,341.833 551,341.5C 551.494,343.134 551.66,344.801 551.5,346.5 Z"/></g>
<g><path style="opacity:1" fill="#796e49" d="M 612.5,341.5 C 611.596,342.209 611.263,343.209 611.5,344.5C 610.833,344.5 610.167,344.5 609.5,344.5C 607.847,344.34 606.514,343.674 605.5,342.5C 606.496,342.586 607.329,342.252 608,341.5C 608.308,342.308 608.808,342.975 609.5,343.5C 610.123,341.034 610.957,338.701 612,336.5C 612.494,338.134 612.66,339.801 612.5,341.5 Z"/></g>
<g><path style="opacity:1" fill="#736a49" d="M 703.5,341.5 C 704.622,343.288 704.789,345.288 704,347.5C 702.893,348.712 702.393,348.379 702.5,346.5C 703.451,345.081 703.784,343.415 703.5,341.5 Z"/></g>
<g><path style="opacity:1" fill="#333944" d="M 609.5,344.5 C 610.167,344.5 610.833,344.5 611.5,344.5C 610.833,355.167 610.167,355.167 609.5,344.5 Z"/></g>
<g><path style="opacity:1" fill="#666048" d="M 761.5,357.5 C 761.217,358.289 760.717,358.956 760,359.5C 759.153,357.807 758.32,356.14 757.5,354.5C 758.151,353.909 758.818,353.243 759.5,352.5C 760.17,354.291 760.837,355.958 761.5,357.5 Z"/></g>
<g><path style="opacity:1" fill="#505146" d="M 527.5,353.5 C 528.146,355.181 528.813,356.847 529.5,358.5C 529.48,359.726 529.147,360.726 528.5,361.5C 527.621,359.772 526.954,357.939 526.5,356C 526.528,354.93 526.861,354.097 527.5,353.5 Z"/></g>
<g><path style="opacity:1" fill="#525246" d="M 100.5,362.5 C 99.8333,359.833 99.1667,357.167 98.5,354.5C 98.7828,353.711 99.2828,353.044 100,352.5C 100.498,355.817 100.665,359.15 100.5,362.5 Z"/></g>
<g><path style="opacity:1" fill="#c2a04e" d="M 474.5,359.5 C 475.613,360.946 475.78,362.613 475,364.5C 474.667,363.833 474.333,363.167 474,362.5C 473.581,363.672 472.915,364.672 472,365.5C 471.506,363.866 471.34,362.199 471.5,360.5C 472.791,360.737 473.791,360.404 474.5,359.5 Z"/></g>
<g><path style="opacity:1" fill="#696348" d="M 521.5,363.5 C 520.833,363.833 520.167,364.167 519.5,364.5C 519.345,361.147 520.012,360.814 521.5,363.5 Z"/></g>
<g><path style="opacity:1" fill="#6f6748" d="M 517.5,367.5 C 515.504,369.917 514.504,369.25 514.5,365.5C 513.527,363.932 513.36,362.265 514,360.5C 514.989,362.97 516.155,365.303 517.5,367.5 Z"/></g>
<g><path style="opacity:1" fill="#6d6449" d="M 497.5,388.5 C 497.657,389.873 497.49,391.207 497,392.5C 496.827,386.652 496.327,380.985 495.5,375.5C 495.336,372.813 495.503,370.146 496,367.5C 496.333,367.833 496.667,368.167 497,368.5C 497.5,375.158 497.666,381.825 497.5,388.5 Z"/></g>
<g><path style="opacity:1" fill="#696248" d="M 465.5,374.5 C 465.158,373.662 464.492,373.328 463.5,373.5C 462.588,372.262 462.421,370.928 463,369.5C 463.637,371.303 464.803,372.636 466.5,373.5C 466.376,374.107 466.043,374.44 465.5,374.5 Z"/></g>
<g><path style="opacity:1" fill="#696248" d="M 483.5,374.5 C 483.833,374.5 484.167,374.5 484.5,374.5C 485.555,377.073 485.722,379.739 485,382.5C 483.748,379.986 483.248,377.32 483.5,374.5 Z"/></g>
<g><path style="opacity:1" fill="#3f4545" d="M 435.5,381.5 C 434.686,383.631 434.186,385.964 434,388.5C 433.71,386.08 433.21,383.746 432.5,381.5C 433.161,380.282 433.828,378.949 434.5,377.5C 435.429,378.689 435.762,380.022 435.5,381.5 Z"/></g>
<g><path style="opacity:1" fill="#696248" d="M 454.5,381.5 C 454.167,381.5 453.833,381.5 453.5,381.5C 452.463,379.262 452.297,376.929 453,374.5C 453.44,376.866 453.94,379.199 454.5,381.5 Z"/></g>
<g><path style="opacity:1" fill="#676248" d="M 457.5,384.5 C 457.875,387.397 457.375,390.063 456,392.5C 456.423,390.097 456.256,387.763 455.5,385.5C 456.167,385.167 456.833,384.833 457.5,384.5 Z"/></g>
<g><path style="opacity:1" fill="#9b854c" d="M 367.5,384.5 C 370.181,387.192 371.514,390.525 371.5,394.5C 367.05,395.899 366.383,394.565 369.5,390.5C 368.822,388.484 368.156,386.484 367.5,384.5 Z"/></g>
<g><path style="opacity:1" fill="#80724a" d="M 385.5,392.5 C 385.06,394.844 384.06,396.844 382.5,398.5C 382.998,395.513 383.498,392.513 384,389.5C 384.513,390.527 385.013,391.527 385.5,392.5 Z"/></g>
<g><path style="opacity:1" fill="#484c45" d="M 404.5,400.5 C 403.685,399.571 402.852,398.571 402,397.5C 401.79,399.058 401.29,400.391 400.5,401.5C 400.335,398.482 400.502,395.482 401,392.5C 401.419,396.852 402.086,397.185 403,393.5C 404.202,395.677 404.702,398.011 404.5,400.5 Z"/></g>
<g><path style="opacity:1" fill="#565347" d="M 418.5,397.5 C 419.793,399.364 419.793,401.364 418.5,403.5C 417.575,402.643 416.908,401.643 416.5,400.5C 417.906,400.027 418.573,399.027 418.5,397.5 Z"/></g>
<g><path style="opacity:1" fill="#182941" d="M 381.5,402.5 C 382.788,404.035 382.788,405.701 381.5,407.5C 380.614,406.675 380.281,405.675 380.5,404.5C 381.338,404.158 381.672,403.492 381.5,402.5 Z"/></g>
<g><path style="opacity:1" fill="#6b6348" d="M 408.5,402.5 C 408.442,408.986 407.776,408.986 406.5,402.5C 406.929,401.047 407.096,399.381 407,397.5C 408.009,399.025 408.509,400.692 408.5,402.5 Z"/></g>
<g><path style="opacity:1" fill="#6f6649" d="M 381.5,402.5 C 381.672,403.492 381.338,404.158 380.5,404.5C 379.49,406.013 379.157,408.347 379.5,411.5C 378.352,407.019 378.185,402.352 379,397.5C 379.099,399.653 379.933,401.319 381.5,402.5 Z"/></g>
<g><path style="opacity:1" fill="#6b6448" d="M 801.5,402.5 C 801.285,404.179 801.952,405.179 803.5,405.5C 803.808,407.924 803.474,410.257 802.5,412.5C 802.167,412 801.833,411.5 801.5,411C 801.095,408.537 801.095,405.704 801.5,402.5 Z"/></g>
<g><path style="opacity:1" fill="#5b5947" d="M 368.5,411.5 C 366.124,410.794 364.79,409.127 364.5,406.5C 365.268,405.737 365.768,404.737 366,403.5C 366.542,406.292 367.376,408.958 368.5,411.5 Z"/></g>
<g><path style="opacity:1" fill="#575647" d="M 337.5,404.5 C 338.237,407.725 338.903,411.059 339.5,414.5C 337.598,411.663 336.931,408.329 337.5,404.5 Z"/></g>
<g><path style="opacity:1" fill="#5e5a47" d="M 248.5,408.5 C 249.434,409.568 249.768,410.901 249.5,412.5C 247.801,412.34 246.134,412.506 244.5,413C 244.833,413.333 245.167,413.667 245.5,414C 244.584,414.278 243.918,414.778 243.5,415.5C 242.986,414.375 242.653,413.209 242.5,412C 244.473,411.505 246.473,411.338 248.5,411.5C 248.5,410.5 248.5,409.5 248.5,408.5 Z"/></g>
<g><path style="opacity:1" fill="#80724a" d="M 331.5,412.5 C 332.434,413.568 332.768,414.901 332.5,416.5C 330.62,416.771 329.287,416.104 328.5,414.5C 328.534,411.801 327.867,409.301 326.5,407C 327.483,406.409 328.15,406.743 328.5,408C 329.104,410.584 329.937,413.084 331,415.5C 331.483,414.552 331.649,413.552 331.5,412.5 Z"/></g>
<g><path style="opacity:1" fill="#635e48" d="M 360.5,408.5 C 361.103,410.626 361.103,412.959 360.5,415.5C 359.5,415.5 358.5,415.5 357.5,415.5C 357.843,413.517 357.176,412.183 355.5,411.5C 356.986,407.724 358.152,408.057 359,412.5C 359.791,411.255 360.291,409.922 360.5,408.5 Z"/></g>
<g><path style="opacity:1" fill="#605b48" d="M 368.5,412.5 C 369.167,412.5 369.833,412.5 370.5,412.5C 370.297,421.635 369.63,421.635 368.5,412.5 Z"/></g>
<g><path style="opacity:1" fill="#3b4144" d="M 379.5,415.5 C 381.326,417.455 381.826,419.788 381,422.5C 379.798,420.323 379.298,417.989 379.5,415.5 Z"/></g>
<g><path style="opacity:1" fill="#5e5b47" d="M 818.5,429.5 C 819.586,429.62 820.253,430.287 820.5,431.5C 820.457,432.416 820.124,433.083 819.5,433.5C 818.566,432.432 818.232,431.099 818.5,429.5 Z"/></g>
<g><path style="opacity:1" fill="#5f5948" d="M 825.5,438.5 C 824.778,438.918 824.278,439.584 824,440.5C 823.768,439.263 823.268,438.263 822.5,437.5C 822.351,436.448 822.517,435.448 823,434.5C 824.016,435.634 824.683,435.301 825,433.5C 826.628,434.962 826.795,436.628 825.5,438.5 Z"/></g>
<g><path style="opacity:1" fill="#696348" d="M 371.5,454.5 C 370.833,455.833 370.167,457.167 369.5,458.5C 369.338,456.473 369.505,454.473 370,452.5C 370.717,453.044 371.217,453.711 371.5,454.5 Z"/></g>
<g><path style="opacity:1" fill="#696348" d="M 371.5,459.5 C 372.167,460.167 372.833,460.833 373.5,461.5C 371.804,465.022 371.138,464.356 371.5,459.5 Z"/></g>
<g><path style="opacity:1" fill="#736948" d="M 388.5,459.5 C 389.167,461.5 389.833,463.5 390.5,465.5C 390.44,466.043 390.107,466.376 389.5,466.5C 388.526,464.257 388.192,461.924 388.5,459.5 Z"/></g>
<g><path style="opacity:1" fill="#5e5b47" d="M 825.5,456.5 C 825.204,458.018 825.204,460.018 825.5,462.5C 824.67,465.016 823.67,467.35 822.5,469.5C 822.962,464.838 823.462,460.171 824,455.5C 824.383,456.056 824.883,456.389 825.5,456.5 Z"/></g>
<g><path style="opacity:1" fill="#5d5947" d="M 422.5,467.5 C 421.185,469.135 421.185,470.801 422.5,472.5C 418.937,475.47 417.603,474.47 418.5,469.5C 419.687,468.466 420.52,467.133 421,465.5C 421.278,466.416 421.778,467.082 422.5,467.5 Z"/></g>
<g><path style="opacity:1" fill="#645e48" d="M 468.5,482.5 C 467.347,484.807 466.18,487.14 465,489.5C 464.683,487.699 464.016,487.366 463,488.5C 462.51,487.207 462.343,485.873 462.5,484.5C 463.496,484.586 464.329,484.252 465,483.5C 465.939,478.955 467.106,478.622 468.5,482.5 Z"/></g>
<g><path style="opacity:1" fill="#605c47" d="M 689.5,490.5 C 688.027,491.071 686.36,491.071 684.5,490.5C 685.848,489.814 687.015,488.814 688,487.5C 689.039,488.244 689.539,489.244 689.5,490.5 Z"/></g>
<g><path style="opacity:1" fill="#686248" d="M 672.5,573.5 C 672.833,574.167 673.167,574.833 673.5,575.5C 667.629,575.644 667.296,574.977 672.5,573.5 Z"/></g>
<g><path style="opacity:1" fill="#676248" d="M 534.5,588.5 C 532.485,589.924 530.152,590.59 527.5,590.5C 529.515,589.076 531.848,588.41 534.5,588.5 Z"/></g>
<g><path style="opacity:1" fill="#615d48" d="M 533.5,610.5 C 534.491,612.123 533.824,613.123 531.5,613.5C 530.096,610.593 530.763,609.593 533.5,610.5 Z"/></g>
<g><path style="opacity:1" fill="#686248" d="M 546.5,627.5 C 545.833,627.833 545.167,628.167 544.5,628.5C 544.082,627.778 543.416,627.278 542.5,627C 544.066,626.235 545.399,626.402 546.5,627.5 Z"/></g>
<g><path style="opacity:1" fill="#595747" d="M 552.5,634.5 C 553.766,635.09 555.099,635.59 556.5,636C 554.285,636.17 552.285,636.837 550.5,638C 552.932,639.087 552.598,639.587 549.5,639.5C 548.234,638.91 546.901,638.41 545.5,638C 548.178,637.328 550.511,636.161 552.5,634.5 Z"/></g>
<g><path style="opacity:1" fill="#726849" d="M 549.5,640.5 C 549.5,641.167 549.5,641.833 549.5,642.5C 542.992,641.258 542.992,640.592 549.5,640.5 Z"/></g>
<g><path style="opacity:1" fill="#575547" d="M 551.5,642.5 C 554.289,641.353 556.956,641.853 559.5,644C 558.058,644.377 557.058,645.21 556.5,646.5C 555.234,645.91 553.901,645.41 552.5,645C 554.857,643.78 554.524,642.947 551.5,642.5 Z"/></g>
<g><path style="opacity:1" fill="#6f6549" d="M 557.5,649.5 C 562.476,649.411 567.143,650.577 571.5,653C 569.793,653.195 568.126,653.195 566.5,653C 567.598,653.77 567.598,654.603 566.5,655.5C 561.366,655.185 556.366,653.685 551.5,651C 550.304,650.346 550.304,649.846 551.5,649.5C 553.643,650.754 555.643,650.754 557.5,649.5 Z"/></g>
<g><path style="opacity:1" fill="#595847" d="M 553.5,659.5 C 555.857,659.337 558.19,659.503 560.5,660C 556.975,660.179 553.641,660.679 550.5,661.5C 549.957,661.44 549.624,661.107 549.5,660.5C 550.689,659.571 552.022,659.238 553.5,659.5 Z"/></g>
<g><path style="opacity:1" fill="#83744a" d="M 551.5,662.5 C 551.443,663.609 551.11,664.609 550.5,665.5C 548.181,664.833 545.847,664.666 543.5,665C 543.957,665.414 544.291,665.914 544.5,666.5C 543.311,667.429 541.978,667.762 540.5,667.5C 540.5,666.167 540.5,664.833 540.5,663.5C 544.269,663.756 547.936,663.423 551.5,662.5 Z"/></g>
<g><path style="opacity:1" fill="#4b4e46" d="M 655.5,662.5 C 656.473,662.987 657.473,663.487 658.5,664C 655.98,664.421 653.98,665.588 652.5,667.5C 652.423,666.25 651.756,665.417 650.5,665C 652.491,664.626 654.158,663.793 655.5,662.5 Z"/></g>
<g><path style="opacity:1" fill="#706749" d="M 554.5,671.5 C 554.262,673.404 553.262,674.738 551.5,675.5C 549.611,674.678 547.611,673.845 545.5,673C 548.644,671.856 551.644,671.356 554.5,671.5 Z"/></g>
<g><path style="opacity:1" fill="#575647" d="M 559.5,679.5 C 560.552,679.351 561.552,679.517 562.5,680C 560.5,680.833 558.5,681.667 556.5,682.5C 557.325,683.386 558.325,683.719 559.5,683.5C 558.432,684.434 557.099,684.768 555.5,684.5C 555.62,681.795 554.62,681.128 552.5,682.5C 551.5,682 550.5,681.5 549.5,681C 553.025,680.821 556.359,680.321 559.5,679.5 Z"/></g>
<g><path style="opacity:1" fill="#645e48" d="M 648.5,686.5 C 649.833,686.5 650.5,687.167 650.5,688.5C 650.44,689.043 650.107,689.376 649.5,689.5C 648.41,688.273 647.076,687.44 645.5,687C 646.448,686.517 647.448,686.351 648.5,686.5 Z"/></g>
<g><path style="opacity:1" fill="#656048" d="M 563.5,687.5 C 564.766,688.09 566.099,688.59 567.5,689C 566.263,689.232 565.263,689.732 564.5,690.5C 561.233,689.969 560.9,688.969 563.5,687.5 Z"/></g>
<g><path style="opacity:1" fill="#786d49" d="M 564.5,693.5 C 565.043,693.56 565.376,693.893 565.5,694.5C 562.973,695.214 560.473,695.88 558,696.5C 554.743,696.275 551.576,695.942 548.5,695.5C 549.873,695.657 551.207,695.49 552.5,695C 549.937,694.237 549.937,693.737 552.5,693.5C 556.652,694.73 560.652,694.73 564.5,693.5 Z"/></g>
<g><path style="opacity:1" fill="#6d6648" d="M 557.5,707.5 C 561.555,707.176 565.555,707.509 569.5,708.5C 568.15,709.95 566.484,710.617 564.5,710.5C 564.918,709.778 565.584,709.278 566.5,709C 563.305,708.819 560.305,708.319 557.5,707.5 Z"/></g>
<g><path style="opacity:1" fill="#595847" d="M 635.5,709.5 C 634.925,711.411 633.925,713.078 632.5,714.5C 631.549,713.081 631.216,711.415 631.5,709.5C 632.833,709.5 634.167,709.5 635.5,709.5 Z"/></g>
<g><path style="opacity:1" fill="#505146" d="M 562.5,718.5 C 562.833,719.167 563.167,719.833 563.5,720.5C 561.436,720.313 559.436,719.813 557.5,719C 559.148,717.323 560.815,717.156 562.5,718.5 Z"/></g>
<g><path style="opacity:1" fill="#85754b" d="M 627.5,717.5 C 628.952,718.302 630.618,718.802 632.5,719C 631.167,719.667 631.167,720.333 632.5,721C 631.207,721.49 629.873,721.657 628.5,721.5C 627.365,720.526 626.365,719.359 625.5,718C 626.094,717.536 626.761,717.369 627.5,717.5 Z"/></g>
<g><path style="opacity:1" fill="#696348" d="M 628.5,721.5 C 629.091,722.151 629.757,722.818 630.5,723.5C 630.376,724.107 630.043,724.44 629.5,724.5C 627.981,723.59 626.315,722.757 624.5,722C 625.793,721.51 627.127,721.343 628.5,721.5 Z"/></g>
<g><path style="opacity:1" fill="#585747" d="M 562.5,725.5 C 563.766,726.09 565.099,726.59 566.5,727C 563.081,727.248 559.747,727.748 556.5,728.5C 558.156,726.94 560.156,725.94 562.5,725.5 Z"/></g>
<g><path style="opacity:1" fill="#7f724a" d="M 629.5,725.5 C 626.833,726.167 624.167,726.833 621.5,727.5C 620.957,727.44 620.624,727.107 620.5,726.5C 623.428,725.516 626.428,725.183 629.5,725.5 Z"/></g>
<g><path style="opacity:1" fill="#4d4f46" d="M 560.5,733.5 C 562.604,733.201 564.604,733.534 566.5,734.5C 565.349,735.731 564.183,735.731 563,734.5C 562.283,735.044 561.783,735.711 561.5,736.5C 559.518,736.005 557.518,735.505 555.5,735C 557.382,734.802 559.048,734.302 560.5,733.5 Z"/></g>
<g><path style="opacity:1" fill="#7d704a" d="M 551.5,737.5 C 552.833,738.5 554.167,739.5 555.5,740.5C 554.07,740.421 552.736,740.754 551.5,741.5C 549.453,739.985 547.119,739.151 544.5,739C 546.727,738.879 548.56,738.046 550,736.5C 550.383,737.056 550.883,737.389 551.5,737.5 Z"/></g>
<g><path style="opacity:1" fill="#87774a" d="M 615.5,742.5 C 617.109,743.665 617.443,744.999 616.5,746.5C 614.914,745.852 613.247,745.352 611.5,745C 613.32,744.8 614.653,743.966 615.5,742.5 Z"/></g>
<g><path style="opacity:1" fill="#6d6548" d="M 568.5,743.5 C 570.414,744.185 572.414,744.685 574.5,745C 569.998,745.068 565.832,746.235 562,748.5C 558.676,747.95 555.509,747.283 552.5,746.5C 557.906,745.351 563.24,744.351 568.5,743.5 Z"/></g>
<g><path style="opacity:1" fill="#716849" d="M 613.5,749.5 C 618.696,750.585 618.696,751.419 613.5,752C 614.888,752.889 614.722,753.389 613,753.5C 612.235,753.43 611.735,753.097 611.5,752.5C 611.938,752.565 612.272,752.399 612.5,752C 611.833,751.667 611.167,751.333 610.5,751C 611.737,750.768 612.737,750.268 613.5,749.5 Z"/></g>
<g><path style="opacity:1" fill="#706749" d="M 608.5,752.5 C 607.262,752.81 607.262,753.31 608.5,754C 606.866,754.494 605.199,754.66 603.5,754.5C 603.918,753.778 604.584,753.278 605.5,753C 604.833,752.667 604.167,752.333 603.5,752C 605.387,751.22 607.054,751.387 608.5,752.5 Z"/></g>
<g><path style="opacity:1" fill="#635f48" d="M 312.5,751.5 C 314.039,752.767 315.706,753.767 317.5,754.5C 315.473,754.662 313.473,754.495 311.5,754C 312.252,753.329 312.586,752.496 312.5,751.5 Z"/></g>
<g><path style="opacity:1" fill="#746a49" d="M 598.5,762.5 C 598.938,762.435 599.272,762.601 599.5,763C 598.5,763.333 597.5,763.667 596.5,764C 597.696,764.654 597.696,765.154 596.5,765.5C 594.664,764.972 592.997,764.306 591.5,763.5C 593.717,762.631 596.05,762.298 598.5,762.5 Z"/></g>
<g><path style="opacity:1" fill="#454945" d="M 561.5,762.5 C 563.957,763.023 566.291,763.856 568.5,765C 564.973,765.808 561.64,765.641 558.5,764.5C 560.179,764.715 561.179,764.048 561.5,762.5 Z"/></g>
<g><path style="opacity:1" fill="#99834c" d="M 558.5,766.5 C 559.625,767.348 559.625,768.348 558.5,769.5C 554.936,769.849 551.602,769.183 548.5,767.5C 551.902,767.564 555.235,767.231 558.5,766.5 Z"/></g>
<g><path style="opacity:1" fill="#756b49" d="M 559.5,769.5 C 560.5,769.5 561.5,769.5 562.5,769.5C 562.567,770.959 562.234,772.292 561.5,773.5C 558.831,771.913 555.831,771.079 552.5,771C 555.036,770.814 557.369,770.314 559.5,769.5 Z"/></g>
<g><path style="opacity:1" fill="#635e48" d="M 371.5,795.5 C 372.978,795.238 374.311,795.571 375.5,796.5C 373.955,797.452 372.288,797.785 370.5,797.5C 370.833,796.833 371.167,796.167 371.5,795.5 Z"/></g>
<g><path style="opacity:1" fill="#87774a" d="M 445.5,837.5 C 444.493,837.548 444.16,836.548 444.5,834.5C 445.002,832.915 446.002,832.415 447.5,833C 445.963,834.11 445.297,835.61 445.5,837.5 Z"/></g>
<g><path style="opacity:1" fill="#5f5b47" d="M 461.5,843.5 C 459.265,843.795 457.265,843.461 455.5,842.5C 455.56,841.957 455.893,841.624 456.5,841.5C 458.336,842.028 460.003,842.694 461.5,843.5 Z"/></g>
<g><path style="opacity:1" fill="#83744a" d="M 698.5,864.5 C 697.698,863.048 697.198,861.382 697,859.5C 696.329,860.252 695.496,860.586 694.5,860.5C 695.833,859.067 697.333,857.733 699,856.5C 698.745,859.082 698.578,861.748 698.5,864.5 Z"/></g>
<g><path style="opacity:1" fill="#756b49" d="M 671.5,863.5 C 670.292,862.766 668.959,862.433 667.5,862.5C 670.183,860.719 673.183,860.219 676.5,861C 674.256,861.05 672.589,861.883 671.5,863.5 Z"/></g>
<g><path style="opacity:1" fill="#83744b" d="M 520.5,861.5 C 519.833,861.833 519.167,862.167 518.5,862.5C 518.5,861.5 518.5,860.5 518.5,859.5C 515.203,859.671 514.869,859.005 517.5,857.5C 519.288,858.283 520.288,859.616 520.5,861.5 Z"/></g>
<g><path style="opacity:1" fill="#6a6348" d="M 583.5,867.5 C 582.833,867.5 582.167,867.5 581.5,867.5C 582.75,862.36 583.416,862.36 583.5,867.5 Z"/></g>
<g><path style="opacity:1" fill="#6d6549" d="M 730.5,899.5 C 730.022,902.278 731.022,904.278 733.5,905.5C 733.333,905.833 733.167,906.167 733,906.5C 730.929,905.897 729.762,904.564 729.5,902.5C 729.263,901.209 729.596,900.209 730.5,899.5 Z"/></g>
<g><path style="opacity:1" fill="#5a5847" d="M 694.5,914.5 C 697.323,915.148 698.823,916.814 699,919.5C 697.293,917.963 695.793,916.296 694.5,914.5 Z"/></g>
<g><path style="opacity:1" fill="#83744a" d="M 630.5,927.5 C 630.5,928.5 630.5,929.5 630.5,930.5C 634.276,930.469 634.443,931.136 631,932.5C 630.228,932.355 629.561,932.022 629,931.5C 628.768,932.737 628.268,933.737 627.5,934.5C 627.706,931.762 628.706,929.428 630.5,927.5 Z"/></g>
<g><path style="opacity:1" fill="#605c48" d="M 660.5,934.5 C 660.5,934.833 660.5,935.167 660.5,935.5C 658.565,936.709 656.565,936.542 654.5,935C 656.473,934.505 658.473,934.338 660.5,934.5 Z"/></g>
<g><path style="opacity:1" fill="#98834b" d="M 542.5,936.5 C 542.509,938.308 542.009,939.975 541,941.5C 540.833,940.667 540.667,939.833 540.5,939C 540.684,937.624 541.351,936.791 542.5,936.5 Z"/></g>
</svg>
